<svg xmlns="http://www.w3.org/2000/svg" viewBox="100 80 824 620" fill="none">
  <path fill-rule="evenodd" clip-rule="evenodd" d="M530.53 111.55C542.28 114.61 552.737 124.023 557.642 135.955C559.871 141.376 560.336 144.046 560.352 151.5C560.38 165.107 555.963 173.612 546.901 177.397C543.324 178.892 543.288 178.882 540.901 175.7C538.281 172.208 537.976 167.75 539.479 154.895C540.427 146.78 539.11 142.235 534.256 136.861C525.406 127.066 508.244 128.903 501.527 140.364C499.451 143.906 498.995 145.999 498.97 152.088C498.942 158.995 496.027 177.306 494.753 178.58C493.682 179.651 488.198 176.049 484.727 171.994C479.662 166.077 477.608 158.63 478.279 148.623C478.92 139.072 481.118 132.701 486.003 126.238C496.249 112.681 513.291 107.06 530.53 111.55Z M523.855 169.425C528.501 171.828 529 174.412 529 196.079C529 218.882 528.285 222.147 522.786 224.445C518.375 226.288 514.5 225.382 511.489 221.805C509.002 218.849 509 218.831 509.035 197.173C509.073 174.031 509.448 171.979 514.11 169.396C517.243 167.659 520.458 167.669 523.855 169.425Z M491.37 202.25C491.701 203.488 491.979 208.816 491.986 214.092L492 223.684L477.25 225.393C432.489 230.579 394.8 241.985 370.939 257.566C360.043 264.681 347.508 277.753 341.733 288.023C335.564 298.994 330.574 314.514 328.387 329.53C325.769 347.505 326.006 383.449 328.847 399.229C335.493 436.141 352.235 453.402 394 466.398C432.66 478.427 488.673 483.827 546.5 481.1C634.874 476.932 685.592 459.292 701.979 427.026C705.057 420.963 709.062 406.916 710.68 396.5C712.593 384.188 712.81 354.276 711.083 341C705.635 299.12 689.488 272.468 658.5 254.207C635.033 240.378 595.199 229.392 550.75 224.49L545 223.856V212.428V201H548.871C556.3 201 582.376 204.121 595.388 206.568C622.529 211.671 641.974 217.939 662.5 228.201C678.654 236.277 685.501 241.272 698.5 254.464C714.846 271.051 724.234 287.568 730.986 311.612C735.269 326.866 737.091 340.148 737.711 360.651C738.784 396.076 733.361 423.519 721.156 444.434C719.209 447.77 713.532 454.586 708.542 459.579C683.352 484.785 638.227 499.749 570.247 505.438C476.709 513.266 387.802 500.158 345.707 472.332C323.089 457.382 309.56 434.99 303.816 403.002C299.849 380.909 300.242 337.724 304.603 316.5C308.15 299.235 316.686 278.922 325.744 266.191C339.1 247.418 361.826 230.729 388.568 220.056C415.583 209.274 456.274 200.924 485.633 200.137C490.169 200.016 490.837 200.262 491.37 202.25Z M584 277.443C622.757 280.586 646.349 285.462 662.981 293.766C682.549 303.537 696 321.426 696 337.682V342H691.443C688.936 342 684.982 341.521 682.654 340.935C678.794 339.962 678.27 339.438 676.678 334.955C672.778 323.974 659.993 314.177 642.352 308.65C617.819 300.964 569.393 297.364 503 298.293C444.549 299.11 411.226 302.843 388.533 311.114C376.859 315.37 371.14 319.268 361.951 329.232C350.163 342.014 342.833 346.139 341.772 340.588C340.9 336.029 342.871 326.704 346.1 320.107C348.262 315.691 351.683 311.165 356.417 306.459C375.26 287.728 407.822 279.491 476.5 276.08C500.931 274.867 561.744 275.638 584 277.443Z M757.385 302.802C777.415 312.183 789.597 333.808 791.583 363.507C793.097 386.139 787.143 407.604 775.767 420.527C770.679 426.308 760.376 433.669 753.964 436.106C748.175 438.305 740.537 438.692 741.235 436.75C741.482 436.063 743.176 430.325 744.999 424C748.11 413.208 748.566 412.314 752.407 409.472C763.805 401.041 769.395 382.545 767.013 361.15C765.131 344.244 762.03 336.775 753.494 328.593C749.586 324.847 747.871 322.31 747.007 319C746.362 316.525 744.746 311.137 743.417 307.028C742.088 302.918 741 299.368 741 299.138C741 297.859 752.157 300.353 757.385 302.802Z M294.004 301.75C294.006 302.163 292.816 307.9 291.359 314.5C288.849 325.867 288.503 326.677 284.814 329.862C279.993 334.024 276.281 341.183 274.44 349.869C272.776 357.722 272.592 373.881 274.064 383C275.557 392.244 280.913 402.831 286.787 408.146C290.879 411.849 291.792 413.375 292.894 418.354C293.607 421.574 295.233 427.276 296.508 431.024C297.783 434.773 298.618 438.048 298.364 438.303C298.11 438.557 296.011 438.357 293.701 437.857C273.386 433.467 258.209 417.752 251.829 394.5C249.91 387.505 249.628 383.924 249.589 366C249.547 346.329 249.654 345.176 252.237 337.5C257.842 320.847 268.1 309.441 282.976 303.32C288.421 301.08 293.996 300.286 294.004 301.75Z M438.705 321.521C448.669 325.684 455.628 335.148 458.966 349.075C463.287 367.099 460.327 383.243 450.799 393.621C437.891 407.679 417.659 405.835 406.537 389.588C401.897 382.809 400.054 377.262 398.94 366.731C396.085 339.739 408.667 320.041 428.782 320.01C432.237 320.004 436.703 320.685 438.705 321.521Z M619.866 322.431C631.497 328.445 639 343.776 639 361.526C639 382.765 631.79 397.224 618.202 403.235C612.466 405.772 602.458 405.311 596.5 402.235C592.4 400.118 586.589 394.5 583.775 389.933C578.174 380.842 575.38 359.085 578.455 348.508C582.179 335.698 588.48 327.48 598.475 322.401C602.735 320.236 604.49 319.912 610.008 320.273C613.587 320.507 618.023 321.478 619.866 322.431Z M355.339 391.939C358.726 393.227 360.978 395.845 364.5 402.589C373.294 419.428 388.667 428.704 417.332 434.468C443.928 439.816 473.797 442.008 519.784 441.985C565.773 441.963 597.748 439.631 623.402 434.429C652.832 428.46 666.18 420.701 673.655 405.217C675.589 401.211 678.276 397.21 679.626 396.325C682.414 394.499 688.348 393.282 691.874 393.813C694.184 394.162 694.234 394.375 693.766 401.836C692.344 424.492 672.727 443.423 641.203 452.558C630.482 455.665 609.043 459.399 588.841 461.678C568.986 463.919 477.442 464.271 456 462.19C428.297 459.501 401.275 454.017 385.905 447.965C369.079 441.339 357.02 430.089 348.422 412.998C343.492 403.198 343.139 397.001 347.306 393.415C350.384 390.765 351.644 390.534 355.339 391.939Z M557.876 402.195C559.073 405.43 557.195 411.439 554.044 414.458C544.549 423.554 514.507 425.715 493 418.847C489.425 417.706 485.498 415.811 484.274 414.636C481.443 411.919 480.441 407.086 482.215 404.695C485.001 400.939 490.903 400.802 510.998 404.027C519.831 405.445 529.967 404.732 539.057 402.052C542.601 401.008 548.102 400.118 551.282 400.076C556.358 400.009 557.164 400.268 557.876 402.195Z M360.296 499.388C363.484 500.142 366.348 501.015 366.661 501.328C366.974 501.641 364.593 506.219 361.369 511.502L355.508 521.106L349.504 520.464C330.77 518.461 306.242 527.656 289.765 542.859C284.094 548.091 272 563.147 272 564.975C272 568.045 307.549 581.729 321.932 584.195C330.202 585.613 329.966 584.921 326.832 598.562C325.412 604.746 324.199 608 323.315 608C319.641 608 301.459 603.392 291.272 599.879C273.461 593.738 256.699 584.562 249.5 577.014C245.547 572.868 245.635 567.862 249.824 558.683C259.3 537.92 277.697 519.45 299.892 508.417C308.932 503.924 322.472 499.623 332.532 498.049C339.77 496.917 352.427 497.527 360.296 499.388Z M707.614 498.491C733.782 503.497 756.523 516.25 772.818 535.055C784.604 548.656 792.835 564.733 791.543 571.625C789.642 581.757 754.658 599.107 722.191 606.02C716.521 607.227 711.743 608.054 711.574 607.857C711.175 607.394 706.121 585.558 706.356 585.316C706.455 585.214 711.027 584.193 716.518 583.047C735.582 579.067 765 567.767 765 564.424C765 562.018 756.887 551.16 750.369 544.843C739.362 534.176 725.962 526.477 711.25 522.369C707.458 521.31 700.936 520.714 692.1 520.617L678.699 520.471L676.496 516.986C675.285 515.069 672.851 510.942 671.089 507.816L667.884 502.133L670.025 500.986C677.052 497.226 694.834 496.045 707.614 498.491Z M399.316 510.132C400.517 510.755 403.402 512.802 405.727 514.68C423.264 528.852 450.167 537.612 486.5 540.979C503.352 542.541 538.834 542.251 553.158 540.435C586.746 536.177 608.052 528.693 629.29 513.694C633.41 510.785 635.953 509.764 640.09 509.359C647.903 508.594 652.717 511.479 661.28 522.058C679.615 544.707 693.266 587.798 697.996 637.953C698.903 647.579 698.829 650 697.5 654.001C695.31 660.593 691.944 663.5 686.5 663.5C677.659 663.5 674.741 657.669 672.484 635.5C668.916 600.445 661.944 571.849 652.248 552.5C649.103 546.225 642.009 536 640.8 536C640.3 536 637.239 537.8 633.999 540.001C622.171 548.033 598.068 557.012 578 560.862C555.373 565.203 540.468 566.254 509 565.728C482.806 565.29 477.767 564.932 464.034 562.532C435.95 557.625 414.376 550.003 399.973 539.9L393.949 535.675L390.961 538.538C387.039 542.295 378.986 558.811 374.624 572.043C369.247 588.355 364.493 613.879 361.562 642.18C360.783 649.703 359.666 656.756 359.079 657.852C356.041 663.529 347.205 665.933 342.217 662.439C336.268 658.273 335.536 650.561 338.578 624.098C343.455 581.657 355.68 544.41 371.647 523.341C377.077 516.175 381.892 511.778 386.202 510.049C389.45 508.746 396.73 508.792 399.316 510.132Z M789.769 609.237C800.698 628.407 809.368 661.219 804.925 666.599C801.288 671.004 780.998 675.946 758 678.027C744.209 679.276 724.497 679.077 722.25 677.666C721.375 677.118 721 673.634 721 666.065V655.248L738.75 654.752C755.284 654.29 776.028 651.837 779.015 649.991C780.077 649.334 780.072 648.31 778.983 644.344C776.748 636.198 772.586 626.719 767.743 618.741C764.326 613.114 763.436 610.887 764.314 610.171C764.966 609.638 769.305 606.921 773.956 604.132C783.858 598.195 783.387 598.042 789.769 609.237Z M264.267 605.156C269.345 607.993 273.653 610.433 273.839 610.579C274.026 610.725 272.395 613.918 270.214 617.673C263.696 628.9 256.199 647.894 257.472 649.955C258.756 652.033 285.557 654.981 303.25 654.992L317 655V665.953V676.906L313.25 677.947C308.392 679.297 287.075 679.293 273.856 677.941C261.435 676.67 241.152 672.517 236.477 670.288C229.908 667.155 229.654 661.748 235.097 641C236.9 634.132 240.324 624.884 243.6 618.039C248.485 607.831 253.247 600 254.568 600C254.825 600 259.189 602.32 264.267 605.156Z M380.714 653.969C389.16 656.151 406.315 658.961 420.241 660.445C467.705 665.504 554.144 666.012 604.756 661.53C623.565 659.864 649.317 655.939 657.289 653.524L662.077 652.072L663.152 654.786C663.743 656.279 664.452 660.425 664.726 664C665.35 672.121 664.053 673.557 653.738 676.156C607.153 687.893 477.5 690.171 406.5 680.498C382.41 677.216 374.332 674.962 371.573 670.751C370.124 668.541 370.136 667.641 371.707 660.168C373.052 653.767 373.757 652.095 374.962 652.44C375.808 652.683 378.396 653.371 380.714 653.969Z" fill="black"/>
</svg>
