<svg xmlns="http://www.w3.org/2000/svg" viewBox="160 710 710 120" fill="none">
<path fill-rule="evenodd" clip-rule="evenodd" d="M329.854 724.002C345.645 731.281 353.027 744.968 352.983 766.886C352.949 783.794 348.735 795.456 339.739 803.545C332.32 810.215 325.763 812.342 312.5 812.382C298.912 812.422 292.68 810.302 284.555 802.876C274.213 793.424 270.487 782.148 271.227 762.543C271.613 752.35 272.105 749.469 274.433 743.787C277.963 735.171 283.715 728.678 291.134 724.932C299.315 720.802 303.144 720.029 313.601 720.391C321.392 720.66 323.731 721.18 329.854 724.002Z M558.178 723.31C573.871 730.265 582.017 745.036 581.985 766.478C581.96 783.737 578.015 794.971 569.027 803.378C561.803 810.135 554.815 812.421 541.5 812.382C527.929 812.341 521.565 810.197 513.711 803.019C504.133 794.265 500.03 783.162 500.03 766C500.03 741.607 509.405 726.787 528.184 721.494C536.308 719.205 550.911 720.089 558.178 723.31Z M647.423 723.336C658.629 728.466 664.874 735.519 668.821 747.5C674.568 764.944 671.091 788.942 661.053 801.119C653.969 809.713 637.09 814.623 622.959 812.2C611.191 810.182 602.735 804.937 597.107 796.167C585.464 778.023 586.784 746.705 599.817 731.861C603.465 727.707 613.156 722.285 619.232 720.998C621.579 720.501 627.589 720.232 632.587 720.399C639.846 720.643 642.831 721.234 647.423 723.336Z M185.734 722.991C191.811 723.004 194.47 725.88 205.407 744.27L214.786 760.04L217.998 754.27C219.765 751.097 224.612 742.763 228.771 735.75L236.332 723H248.666H261V762.36C261 784.009 260.712 803.823 260.36 806.393L259.719 811.065L249.11 810.782L238.5 810.5L238.875 784C239.314 753.073 240.581 753.844 226.97 776.759L218.5 791.017L214.5 790.759C210.524 790.502 210.457 790.428 203.279 778.5C199.308 771.9 194.665 764.25 192.962 761.5L189.865 756.5L190.56 783.75L191.254 811H180.127H169L168.803 771.75C168.58 727.348 168.688 723.844 170.325 722.715C170.971 722.269 173.75 722.147 176.5 722.443C179.25 722.74 183.405 722.987 185.734 722.991Z M385.763 756.75L386.026 791H401.013H416V800.941C416 806.409 415.59 811.136 415.088 811.445C414.587 811.755 402.887 811.71 389.088 811.344L364 810.68V767.007C364 742.986 364.315 723.019 364.699 722.634C365.084 722.249 369.922 722.062 375.449 722.217L385.5 722.5L385.763 756.75Z M474.5 724.947C481.832 727.776 488.985 734.669 490.769 740.623C491.446 742.883 492 748.095 492 752.206C492 758.54 491.534 760.613 488.945 765.794C486.236 771.215 480.579 776.974 476.689 778.27C476.136 778.455 480.48 784.906 486.342 792.607C492.853 801.16 497 807.518 497 808.946V811.283L486.009 810.762C478.2 810.392 474.29 809.765 472.507 808.597C471.127 807.692 466.735 801.35 462.749 794.504L455.5 782.056L451.215 782.028L446.93 782L447.215 796.25L447.5 810.5L436.411 810.781L425.322 811.062L424.663 786.281C423.678 749.219 423.835 726.178 425.088 723.836C426.14 721.87 426.87 721.817 447.338 722.217C466.489 722.592 469.07 722.851 474.5 724.947Z M784.67 722.775C786.054 723.655 787.044 726.112 800.479 762C817.666 807.91 818.136 809.264 817.214 810.186C816.728 810.672 811.232 810.941 804.999 810.784L793.667 810.5L790.728 801.854C788.034 793.929 787.537 793.157 784.769 792.604C780.831 791.816 769.889 791.833 762.178 792.639C756.228 793.261 756.032 793.376 754.897 796.889C754.256 798.875 752.86 802.862 751.794 805.75L749.856 811H737.987C731.459 811 725.861 810.585 725.548 810.077C725.234 809.57 727.051 803.607 729.585 796.827C732.119 790.047 735.548 780.675 737.205 776C741.914 762.714 757.083 724.64 758.221 723.25C759.357 721.863 782.58 721.445 784.67 722.775Z M852 766.5V811H840H828V767.167C828 743.058 828.3 723.033 828.667 722.667C829.033 722.3 834.433 722 840.667 722H852V766.5Z M452 741.92L447.5 742.5L447.234 751.5C447.087 756.45 447.22 761.962 447.529 763.75C448.087 766.98 448.126 767 453.795 766.944C461.617 766.866 465.991 765.154 468.715 761.102C473.508 753.974 470.303 744.023 462.723 742.499C457.041 741.356 456.575 741.331 452 741.92Z M301.922 744.274C297.879 746.998 294.389 751.939 293.016 756.882C290.528 765.838 292.612 780.695 297.169 786.488C303.883 795.023 321.182 795.171 327.182 786.745C333.55 777.801 333.358 756.809 326.831 748.512C321.783 742.095 308.507 739.836 301.922 744.274Z M532.45 743.407C524.766 746.754 520.386 757.205 521.268 770.083C522.376 786.249 530.372 793.963 544.784 792.768C547.863 792.513 551.217 791.505 552.791 790.362C561.99 783.684 563.817 758.665 555.846 748.532C551.333 742.794 539.705 740.247 532.45 743.407Z M620.984 743.852C613.793 747.673 609.341 758.597 610.302 770.064C611.558 785.045 618.737 793 631 793C644.914 793 650.77 783.99 649.817 764.048C649.318 753.625 646.655 748.054 640.423 744.402C635.208 741.346 626.181 741.09 620.984 743.852Z M766.598 759.019C764.069 766.842 762 773.638 762 774.121C762 774.605 766.5 775 772 775C780.109 775 782 774.723 782 773.537C782 771.691 773.068 746.796 771.994 745.648C771.555 745.18 769.127 751.197 766.598 759.019Z M721.527 760.044C721.882 760.618 721.855 764.893 721.468 769.544L720.763 778H702.441C690.791 778 683.883 777.62 683.473 776.956C683.118 776.382 683.145 772.107 683.532 767.456L684.237 759H702.559C714.209 759 721.117 759.38 721.527 760.044Z" fill="white"/>
</svg>